<?xml version="1.0" encoding="UTF-8" standalone="no"?>
<!DOCTYPE svg PUBLIC "-//W3C//DTD SVG 1.1//EN"
 "http://www.w3.org/Graphics/SVG/1.1/DTD/svg11.dtd">
<!-- Generated by graphviz version 2.43.0 (0)
 -->
<!-- Title: cppcoro/config.hpp Pages: 1 -->
<svg width="204pt" height="192pt"
 viewBox="0.00 0.00 203.50 192.00" xmlns="http://www.w3.org/2000/svg" xmlns:xlink="http://www.w3.org/1999/xlink">
<g id="graph0" class="graph" transform="scale(1 1) rotate(0) translate(4 188)">
<title>cppcoro/config.hpp</title>
<!-- Node1 -->
<g id="Node000001" class="node">
<title>Node1</title>
<g id="a_Node000001"><a xlink:title=" ">
<polygon fill="#999999" stroke="#666666" points="161.5,-184 53.5,-184 53.5,-165 161.5,-165 161.5,-184"/>
<text text-anchor="middle" x="107.5" y="-172" font-family="Helvetica,sans-Serif" font-size="10.00">cppcoro/config.hpp</text>
</a>
</g>
</g>
<!-- Node2 -->
<g id="Node000002" class="node">
<title>Node2</title>
<g id="a_Node000002"><a xlink:href="coroutine_8hpp.html" target="_top" xlink:title=" ">
<polygon fill="white" stroke="#666666" points="170,-129 45,-129 45,-110 170,-110 170,-129"/>
<text text-anchor="middle" x="107.5" y="-117" font-family="Helvetica,sans-Serif" font-size="10.00">cppcoro/coroutine.hpp</text>
</a>
</g>
</g>
<!-- Node1&#45;&gt;Node2 -->
<g id="edge1_Node000001_Node000002" class="edge">
<title>Node1&#45;&gt;Node2</title>
<g id="a_edge1_Node000001_Node000002"><a xlink:title=" ">
<path fill="none" stroke="#63b8ff" d="M107.5,-154.66C107.5,-145.93 107.5,-135.99 107.5,-129.09"/>
<polygon fill="#63b8ff" stroke="#63b8ff" points="104,-154.75 107.5,-164.75 111,-154.75 104,-154.75"/>
</a>
</g>
</g>
<!-- Node3 -->
<g id="Node000003" class="node">
<title>Node3</title>
<g id="a_Node000003"><a xlink:href="generator_8hpp.html" target="_top" xlink:title=" ">
<polygon fill="white" stroke="#666666" points="125,-74 0,-74 0,-55 125,-55 125,-74"/>
<text text-anchor="middle" x="62.5" y="-62" font-family="Helvetica,sans-Serif" font-size="10.00">cppcoro/generator.hpp</text>
</a>
</g>
</g>
<!-- Node2&#45;&gt;Node3 -->
<g id="edge2_Node000002_Node000003" class="edge">
<title>Node2&#45;&gt;Node3</title>
<g id="a_edge2_Node000002_Node000003"><a xlink:title=" ">
<path fill="none" stroke="#63b8ff" d="M93.45,-101.96C85.61,-92.72 76.17,-81.6 69.79,-74.09"/>
<polygon fill="#63b8ff" stroke="#63b8ff" points="90.93,-104.39 100.07,-109.75 96.26,-99.86 90.93,-104.39"/>
</a>
</g>
</g>
<!-- Node4 -->
<g id="Node000004" class="node">
<title>Node4</title>
<g id="a_Node000004"><a xlink:href="recursive__generator_8hpp.html" target="_top" xlink:title=" ">
<polygon fill="white" stroke="#666666" points="195.5,-19 19.5,-19 19.5,0 195.5,0 195.5,-19"/>
<text text-anchor="middle" x="107.5" y="-7" font-family="Helvetica,sans-Serif" font-size="10.00">cppcoro/recursive_generator.hpp</text>
</a>
</g>
</g>
<!-- Node2&#45;&gt;Node4 -->
<g id="edge4_Node000002_Node000004" class="edge">
<title>Node2&#45;&gt;Node4</title>
<g id="a_edge4_Node000002_Node000004"><a xlink:title=" ">
<path fill="none" stroke="#63b8ff" d="M120.22,-101.61C125.43,-93.67 130.84,-83.81 133.5,-74 138.98,-53.76 124.64,-31.34 115.14,-19.3"/>
<polygon fill="#63b8ff" stroke="#63b8ff" points="117.27,-99.73 114.39,-109.93 123,-103.75 117.27,-99.73"/>
</a>
</g>
</g>
<!-- Node3&#45;&gt;Node4 -->
<g id="edge3_Node000003_Node000004" class="edge">
<title>Node3&#45;&gt;Node4</title>
<g id="a_edge3_Node000003_Node000004"><a xlink:title=" ">
<path fill="none" stroke="#63b8ff" d="M76.55,-46.96C84.39,-37.72 93.83,-26.6 100.21,-19.09"/>
<polygon fill="#63b8ff" stroke="#63b8ff" points="73.74,-44.86 69.93,-54.75 79.07,-49.39 73.74,-44.86"/>
</a>
</g>
</g>
</g>
</svg>
