<?xml version="1.0" encoding="UTF-8" standalone="no"?>
<!DOCTYPE svg PUBLIC "-//W3C//DTD SVG 1.1//EN"
 "http://www.w3.org/Graphics/SVG/1.1/DTD/svg11.dtd">
<!-- Generated by graphviz version 2.43.0 (0)
 -->
<!-- Title: digraphx/digraph_detail.hpp Pages: 1 -->
<svg width="304pt" height="225pt"
 viewBox="0.00 0.00 303.50 225.00" xmlns="http://www.w3.org/2000/svg" xmlns:xlink="http://www.w3.org/1999/xlink">
<g id="graph0" class="graph" transform="scale(1 1) rotate(0) translate(4 221)">
<title>digraphx/digraph_detail.hpp</title>
<!-- Node1 -->
<g id="Node000001" class="node">
<title>Node1</title>
<g id="a_Node000001"><a xlink:title="Internal implementation helpers shared by the digraphx algorithms.">
<polygon fill="#999999" stroke="#666666" points="223,-217 70,-217 70,-198 223,-198 223,-217"/>
<text text-anchor="middle" x="146.5" y="-205" font-family="Helvetica,sans-Serif" font-size="10.00">digraphx/digraph_detail.hpp</text>
</a>
</g>
</g>
<!-- Node2 -->
<g id="Node000002" class="node">
<title>Node2</title>
<g id="a_Node000002"><a xlink:href="neg__cycle_8hpp.html" target="_top" xlink:title="Negative cycle detection for weighted directed graphs.">
<polygon fill="white" stroke="#666666" points="142.5,-156.5 10.5,-156.5 10.5,-137.5 142.5,-137.5 142.5,-156.5"/>
<text text-anchor="middle" x="76.5" y="-144.5" font-family="Helvetica,sans-Serif" font-size="10.00">digraphx/neg_cycle.hpp</text>
</a>
</g>
</g>
<!-- Node1&#45;&gt;Node2 -->
<g id="edge1_Node000001_Node000002" class="edge">
<title>Node1&#45;&gt;Node2</title>
<g id="a_edge1_Node000001_Node000002"><a xlink:title=" ">
<path fill="none" stroke="#63b8ff" d="M128.22,-191.22C115.05,-180.21 97.74,-165.75 86.87,-156.67"/>
<polygon fill="#63b8ff" stroke="#63b8ff" points="126.25,-194.14 136.17,-197.87 130.74,-188.77 126.25,-194.14"/>
</a>
</g>
</g>
<!-- Node5 -->
<g id="Node000005" class="node">
<title>Node5</title>
<g id="a_Node000005"><a xlink:href="neg__cycle__q_8hpp.html" target="_top" xlink:title="Negative cycle detection with constraints using Howard&#39;s method.">
<polygon fill="white" stroke="#666666" points="276,-162 165,-162 165,-132 276,-132 276,-162"/>
<text text-anchor="start" x="173" y="-150" font-family="Helvetica,sans-Serif" font-size="10.00">digraphx/neg_cycle</text>
<text text-anchor="middle" x="220.5" y="-139" font-family="Helvetica,sans-Serif" font-size="10.00">_q.hpp</text>
</a>
</g>
</g>
<!-- Node1&#45;&gt;Node5 -->
<g id="edge4_Node000001_Node000005" class="edge">
<title>Node1&#45;&gt;Node5</title>
<g id="a_edge4_Node000001_Node000005"><a xlink:title=" ">
<path fill="none" stroke="#63b8ff" d="M165.47,-191.5C176.92,-182.45 191.41,-171 202.65,-162.11"/>
<polygon fill="#63b8ff" stroke="#63b8ff" points="163.09,-188.92 157.42,-197.87 167.43,-194.41 163.09,-188.92"/>
</a>
</g>
</g>
<!-- Node3 -->
<g id="Node000003" class="node">
<title>Node3</title>
<g id="a_Node000003"><a xlink:href="parametric_8hpp.html" target="_top" xlink:title="Maximum parametric network problem solver.">
<polygon fill="white" stroke="#666666" points="137,-90.5 0,-90.5 0,-71.5 137,-71.5 137,-90.5"/>
<text text-anchor="middle" x="68.5" y="-78.5" font-family="Helvetica,sans-Serif" font-size="10.00">digraphx/parametric.hpp</text>
</a>
</g>
</g>
<!-- Node2&#45;&gt;Node3 -->
<g id="edge2_Node000002_Node000003" class="edge">
<title>Node2&#45;&gt;Node3</title>
<g id="a_edge2_Node000002_Node000003"><a xlink:title=" ">
<path fill="none" stroke="#63b8ff" d="M74.14,-127.08C72.64,-115.13 70.78,-100.22 69.61,-90.91"/>
<polygon fill="#63b8ff" stroke="#63b8ff" points="70.71,-127.88 75.42,-137.37 77.65,-127.01 70.71,-127.88"/>
</a>
</g>
</g>
<!-- Node4 -->
<g id="Node000004" class="node">
<title>Node4</title>
<g id="a_Node000004"><a xlink:href="min__cycle__ratio_8hpp.html" target="_top" xlink:title="Minimum cycle ratio algorithms for directed graphs.">
<polygon fill="white" stroke="#666666" points="124.5,-30 12.5,-30 12.5,0 124.5,0 124.5,-30"/>
<text text-anchor="start" x="20.5" y="-18" font-family="Helvetica,sans-Serif" font-size="10.00">digraphx/min_cycle</text>
<text text-anchor="middle" x="68.5" y="-7" font-family="Helvetica,sans-Serif" font-size="10.00">_ratio.hpp</text>
</a>
</g>
</g>
<!-- Node3&#45;&gt;Node4 -->
<g id="edge3_Node000003_Node000004" class="edge">
<title>Node3&#45;&gt;Node4</title>
<g id="a_edge3_Node000003_Node000004"><a xlink:title=" ">
<path fill="none" stroke="#63b8ff" d="M68.5,-61.35C68.5,-51.47 68.5,-39.51 68.5,-30.36"/>
<polygon fill="#63b8ff" stroke="#63b8ff" points="65,-61.37 68.5,-71.37 72,-61.37 65,-61.37"/>
</a>
</g>
</g>
<!-- Node6 -->
<g id="Node000006" class="node">
<title>Node6</title>
<g id="a_Node000006"><a xlink:href="min__parametric__q_8hpp.html" target="_top" xlink:title="Minimum parametric network problem solver with constraints.">
<polygon fill="white" stroke="#666666" points="295.5,-96 155.5,-96 155.5,-66 295.5,-66 295.5,-96"/>
<text text-anchor="start" x="163.5" y="-84" font-family="Helvetica,sans-Serif" font-size="10.00">digraphx/min_parametric</text>
<text text-anchor="middle" x="225.5" y="-73" font-family="Helvetica,sans-Serif" font-size="10.00">_q.hpp</text>
</a>
</g>
</g>
<!-- Node5&#45;&gt;Node6 -->
<g id="edge5_Node000005_Node000006" class="edge">
<title>Node5&#45;&gt;Node6</title>
<g id="a_edge5_Node000005_Node000006"><a xlink:title=" ">
<path fill="none" stroke="#63b8ff" d="M222.39,-121.83C223.06,-113.17 223.8,-103.7 224.39,-96.16"/>
<polygon fill="#63b8ff" stroke="#63b8ff" points="218.9,-121.55 221.61,-131.8 225.88,-122.1 218.9,-121.55"/>
</a>
</g>
</g>
</g>
</svg>
