<?xml version="1.0" encoding="UTF-8" standalone="no"?>
<!DOCTYPE svg PUBLIC "-//W3C//DTD SVG 1.1//EN"
 "http://www.w3.org/Graphics/SVG/1.1/DTD/svg11.dtd">
<!-- Generated by graphviz version 2.43.0 (0)
 -->
<!-- Title: mcr_example Pages: 1 -->
<svg width="369pt" height="332pt"
 viewBox="0.00 0.00 369.00 331.70" xmlns="http://www.w3.org/2000/svg" xmlns:xlink="http://www.w3.org/1999/xlink">
<g id="graph0" class="graph" transform="scale(1 1) rotate(0) translate(4 327.7)">
<title>mcr_example</title>
<!-- a -->
<g id="node1" class="node">
<title>a</title>
<ellipse fill="#d4e6f1" stroke="black" cx="254" cy="-233.5" rx="18" ry="18"/>
<text text-anchor="middle" x="254" y="-229.8" font-family="Times,serif" font-size="14.00">A</text>
</g>
<!-- b -->
<g id="node2" class="node">
<title>b</title>
<ellipse fill="#d4e6f1" stroke="black" cx="254" cy="-161.5" rx="18" ry="18"/>
<text text-anchor="middle" x="254" y="-157.8" font-family="Times,serif" font-size="14.00">B</text>
</g>
<!-- a&#45;&gt;b -->
<g id="edge1" class="edge">
<title>a&#45;&gt;b</title>
<path fill="none" stroke="#e74c3c" d="M254,-215.09C254,-207.44 254,-198.39 254,-189.93"/>
<polygon fill="#e74c3c" stroke="#e74c3c" points="257.5,-189.67 254,-179.67 250.5,-189.67 257.5,-189.67"/>
<text text-anchor="middle" x="245.5" y="-195" font-family="Times,serif" font-size="10.00">c=2, t=1</text>
</g>
<!-- c -->
<g id="node3" class="node">
<title>c</title>
<ellipse fill="#d4e6f1" stroke="black" cx="254" cy="-89.5" rx="18" ry="18"/>
<text text-anchor="middle" x="254" y="-85.8" font-family="Times,serif" font-size="14.00">C</text>
</g>
<!-- b&#45;&gt;c -->
<g id="edge2" class="edge">
<title>b&#45;&gt;c</title>
<path fill="none" stroke="#e74c3c" d="M254,-143.09C254,-135.44 254,-126.39 254,-117.93"/>
<polygon fill="#e74c3c" stroke="#e74c3c" points="257.5,-117.67 254,-107.67 250.5,-117.67 257.5,-117.67"/>
<text text-anchor="middle" x="245.5" y="-123" font-family="Times,serif" font-size="10.00">c=3, t=1</text>
</g>
<!-- d -->
<g id="node4" class="node">
<title>d</title>
<ellipse fill="#d4e6f1" stroke="black" cx="254" cy="-305.5" rx="18.4" ry="18.4"/>
<text text-anchor="middle" x="254" y="-301.8" font-family="Times,serif" font-size="14.00">D</text>
</g>
<!-- c&#45;&gt;d -->
<g id="edge3" class="edge">
<title>c&#45;&gt;d</title>
<path fill="none" stroke="#e74c3c" d="M236.41,-93.5C213.72,-99.37 173.99,-112.11 147,-134.5 123.42,-154.06 117.82,-162.66 109,-192 91.55,-250.06 179.54,-284.39 226.32,-298.28"/>
<polygon fill="#e74c3c" stroke="#e74c3c" points="225.58,-301.71 236.16,-301.08 227.5,-294.98 225.58,-301.71"/>
<text text-anchor="middle" x="107" y="-195" font-family="Times,serif" font-size="10.00">c=4, t=2</text>
</g>
<!-- d&#45;&gt;a -->
<g id="edge4" class="edge">
<title>d&#45;&gt;a</title>
<path fill="none" stroke="#e74c3c" d="M254,-287.09C254,-279.44 254,-270.39 254,-261.93"/>
<polygon fill="#e74c3c" stroke="#e74c3c" points="257.5,-261.67 254,-251.67 250.5,-261.67 257.5,-261.67"/>
<text text-anchor="middle" x="245.5" y="-266.9" font-family="Times,serif" font-size="10.00">c=1, t=1</text>
</g>
<!-- note -->
<g id="node5" class="node">
<title>note</title>
<polygon fill="#fcf3cf" stroke="black" points="355,-53 147,-53 147,0 361,0 361,-47 355,-53"/>
<polyline fill="none" stroke="black" points="355,-53 355,-47 "/>
<polyline fill="none" stroke="black" points="361,-47 355,-47 "/>
<text text-anchor="middle" x="254" y="-37.8" font-family="Times,serif" font-size="14.00">Cycle A→B→C→D→A</text>
<text text-anchor="middle" x="254" y="-22.8" font-family="Times,serif" font-size="14.00">r = (2+3+4+1)/(1+1+2+1)</text>
<text text-anchor="middle" x="254" y="-7.8" font-family="Times,serif" font-size="14.00"> &#160;= 10/5 = 2.0</text>
</g>
<!-- d&#45;&gt;note -->
<g id="edge5" class="edge">
<title>d&#45;&gt;note</title>
<path fill="none" stroke="#000000" stroke-dasharray="5,2" d="M235.81,-304.1C207.3,-300.76 153.73,-289.47 138,-251.5 130.35,-233.02 130.35,-89.98 138,-71.5 139.63,-67.57 141.69,-63.98 144.11,-60.7"/>
<polygon fill="#000000" stroke="#000000" points="146.79,-62.96 150.83,-53.16 141.56,-58.3 146.79,-62.96"/>
</g>
</g>
</svg>
