<?xml version="1.0" encoding="UTF-8" standalone="no"?>
<!DOCTYPE svg PUBLIC "-//W3C//DTD SVG 1.1//EN"
 "http://www.w3.org/Graphics/SVG/1.1/DTD/svg11.dtd">
<!-- Generated by graphviz version 2.43.0 (0)
 -->
<!-- Title: neg_cycle Pages: 1 -->
<svg width="285pt" height="244pt"
 viewBox="0.00 0.00 285.00 244.00" xmlns="http://www.w3.org/2000/svg" xmlns:xlink="http://www.w3.org/1999/xlink">
<g id="graph0" class="graph" transform="scale(1 1) rotate(0) translate(4 240)">
<title>neg_cycle</title>
<!-- x -->
<g id="node1" class="node">
<title>x</title>
<ellipse fill="#d4e6f1" stroke="black" cx="194.5" cy="-146" rx="18" ry="18"/>
<text text-anchor="middle" x="194.5" y="-142.3" font-family="Times,serif" font-size="14.00">X</text>
</g>
<!-- y -->
<g id="node2" class="node">
<title>y</title>
<ellipse fill="#d4e6f1" stroke="black" cx="194.5" cy="-74" rx="18" ry="18"/>
<text text-anchor="middle" x="194.5" y="-70.3" font-family="Times,serif" font-size="14.00">Y</text>
</g>
<!-- x&#45;&gt;y -->
<g id="edge1" class="edge">
<title>x&#45;&gt;y</title>
<path fill="none" stroke="#27ae60" d="M194.5,-127.59C194.5,-119.94 194.5,-110.89 194.5,-102.43"/>
<polygon fill="#27ae60" stroke="#27ae60" points="198,-102.17 194.5,-92.17 191,-102.17 198,-102.17"/>
<text text-anchor="middle" x="186" y="-107.5" font-family="Times,serif" font-size="10.00">w=2</text>
</g>
<!-- z -->
<g id="node3" class="node">
<title>z</title>
<ellipse fill="#d4e6f1" stroke="black" cx="194.5" cy="-218" rx="18" ry="18"/>
<text text-anchor="middle" x="194.5" y="-214.3" font-family="Times,serif" font-size="14.00">Z</text>
</g>
<!-- y&#45;&gt;z -->
<g id="edge2" class="edge">
<title>y&#45;&gt;z</title>
<path fill="none" stroke="#27ae60" d="M176.66,-78.52C150.88,-86.19 104.6,-104.55 89,-140.5 72.86,-177.69 130.44,-200.68 166.84,-211.2"/>
<polygon fill="#27ae60" stroke="#27ae60" points="166.34,-214.7 176.91,-213.96 168.19,-207.94 166.34,-214.7"/>
<text text-anchor="middle" x="82.5" y="-143.5" font-family="Times,serif" font-size="10.00">w=3</text>
</g>
<!-- z&#45;&gt;x -->
<g id="edge3" class="edge">
<title>z&#45;&gt;x</title>
<path fill="none" stroke="#e74c3c" d="M194.5,-199.59C194.5,-191.94 194.5,-182.89 194.5,-174.43"/>
<polygon fill="#e74c3c" stroke="#e74c3c" points="198,-174.17 194.5,-164.17 191,-174.17 198,-174.17"/>
<text text-anchor="middle" x="186" y="-179.5" font-family="Times,serif" font-size="10.00" fill="#e74c3c">w=&#45;6</text>
</g>
<!-- note -->
<g id="node4" class="node">
<title>note</title>
<polygon fill="#fadbd8" stroke="black" points="271,-38 112,-38 112,0 277,0 277,-32 271,-38"/>
<polyline fill="none" stroke="black" points="271,-38 271,-32 "/>
<polyline fill="none" stroke="black" points="277,-32 271,-32 "/>
<text text-anchor="middle" x="194.5" y="-22.8" font-family="Times,serif" font-size="14.00">Negative cycle!</text>
<text text-anchor="middle" x="194.5" y="-7.8" font-family="Times,serif" font-size="14.00">2 + 3 + (&#45;6) = &#45;1 &lt; 0</text>
</g>
<!-- z&#45;&gt;note -->
<g id="edge4" class="edge">
<title>z&#45;&gt;note</title>
<path fill="none" stroke="#000000" stroke-dasharray="5,2" d="M176.53,-214.16C153.58,-208.11 115.35,-193.82 103,-164 93.82,-141.83 93.82,-78.17 103,-56 104.65,-52.02 106.86,-48.46 109.5,-45.28"/>
<polygon fill="#000000" stroke="#000000" points="112.13,-47.61 116.89,-38.14 107.27,-42.58 112.13,-47.61"/>
</g>
</g>
</svg>
