<?xml version="1.0" encoding="UTF-8" standalone="no"?>
<!DOCTYPE svg PUBLIC "-//W3C//DTD SVG 1.1//EN"
 "http://www.w3.org/Graphics/SVG/1.1/DTD/svg11.dtd">
<!-- Generated by graphviz version 2.43.0 (0)
 -->
<!-- Title: digraphx/mcf.hpp Pages: 1 -->
<svg width="640pt" height="93pt"
 viewBox="0.00 0.00 639.50 93.00" xmlns="http://www.w3.org/2000/svg" xmlns:xlink="http://www.w3.org/1999/xlink">
<g id="graph0" class="graph" transform="scale(1 1) rotate(0) translate(4 89)">
<title>digraphx/mcf.hpp</title>
<!-- Node1 -->
<g id="Node000001" class="node">
<title>Node1</title>
<g id="a_Node000001"><a xlink:title="Min&#45;cost flow via cycle&#45;cancellation descent (Bellman&#45;Ford).">
<polygon fill="#999999" stroke="#666666" points="433.5,-85 332.5,-85 332.5,-66 433.5,-66 433.5,-85"/>
<text text-anchor="middle" x="383" y="-73" font-family="Helvetica,sans-Serif" font-size="10.00">digraphx/mcf.hpp</text>
</a>
</g>
</g>
<!-- Node2 -->
<g id="Node000002" class="node">
<title>Node2</title>
<g id="a_Node000002"><a xlink:title=" ">
<polygon fill="#e0e0e0" stroke="#999999" points="104,-30 0,-30 0,0 104,0 104,-30"/>
<text text-anchor="start" x="8" y="-18" font-family="Helvetica,sans-Serif" font-size="10.00">absl/container/flat</text>
<text text-anchor="middle" x="52" y="-7" font-family="Helvetica,sans-Serif" font-size="10.00">_hash_map.h</text>
</a>
</g>
</g>
<!-- Node1&#45;&gt;Node2 -->
<g id="edge1_Node000001_Node000002" class="edge">
<title>Node1&#45;&gt;Node2</title>
<g id="a_edge1_Node000001_Node000002"><a xlink:title=" ">
<path fill="none" stroke="#63b8ff" d="M332.07,-67.07C279.79,-59.23 195.85,-46.05 114.15,-30.16"/>
<polygon fill="#63b8ff" stroke="#63b8ff" points="114.68,-26.69 104.2,-28.2 113.34,-33.56 114.68,-26.69"/>
</a>
</g>
</g>
<!-- Node3 -->
<g id="Node000003" class="node">
<title>Node3</title>
<g id="a_Node000003"><a xlink:title=" ">
<polygon fill="#e0e0e0" stroke="#999999" points="226,-30 122,-30 122,0 226,0 226,-30"/>
<text text-anchor="start" x="130" y="-18" font-family="Helvetica,sans-Serif" font-size="10.00">absl/container/flat</text>
<text text-anchor="middle" x="174" y="-7" font-family="Helvetica,sans-Serif" font-size="10.00">_hash_set.h</text>
</a>
</g>
</g>
<!-- Node1&#45;&gt;Node3 -->
<g id="edge2_Node000001_Node000003" class="edge">
<title>Node1&#45;&gt;Node3</title>
<g id="a_edge2_Node000001_Node000003"><a xlink:title=" ">
<path fill="none" stroke="#63b8ff" d="M352.61,-65.99C321.61,-57.32 272.69,-43.62 233.88,-32.76"/>
<polygon fill="#63b8ff" stroke="#63b8ff" points="234.82,-29.39 224.25,-30.06 232.93,-36.13 234.82,-29.39"/>
</a>
</g>
</g>
<!-- Node4 -->
<g id="Node000004" class="node">
<title>Node4</title>
<g id="a_Node000004"><a xlink:title=" ">
<polygon fill="#e0e0e0" stroke="#999999" points="308,-24.5 244,-24.5 244,-5.5 308,-5.5 308,-24.5"/>
<text text-anchor="middle" x="276" y="-12.5" font-family="Helvetica,sans-Serif" font-size="10.00">algorithm</text>
</a>
</g>
</g>
<!-- Node1&#45;&gt;Node4 -->
<g id="edge3_Node000001_Node000004" class="edge">
<title>Node1&#45;&gt;Node4</title>
<g id="a_edge3_Node000001_Node000004"><a xlink:title=" ">
<path fill="none" stroke="#63b8ff" d="M367.21,-65.87C349.67,-56.28 321.12,-40.67 300.63,-29.47"/>
<polygon fill="#63b8ff" stroke="#63b8ff" points="302.31,-26.39 291.85,-24.67 298.95,-32.54 302.31,-26.39"/>
</a>
</g>
</g>
<!-- Node5 -->
<g id="Node000005" class="node">
<title>Node5</title>
<g id="a_Node000005"><a xlink:title=" ">
<polygon fill="#e0e0e0" stroke="#999999" points="376,-24.5 326,-24.5 326,-5.5 376,-5.5 376,-24.5"/>
<text text-anchor="middle" x="351" y="-12.5" font-family="Helvetica,sans-Serif" font-size="10.00">cstdint</text>
</a>
</g>
</g>
<!-- Node1&#45;&gt;Node5 -->
<g id="edge4_Node000001_Node000005" class="edge">
<title>Node1&#45;&gt;Node5</title>
<g id="a_edge4_Node000001_Node000005"><a xlink:title=" ">
<path fill="none" stroke="#63b8ff" d="M378.28,-65.87C373.65,-57.4 366.45,-44.24 360.61,-33.57"/>
<polygon fill="#63b8ff" stroke="#63b8ff" points="363.61,-31.76 355.74,-24.67 357.47,-35.12 363.61,-31.76"/>
</a>
</g>
</g>
<!-- Node6 -->
<g id="Node000006" class="node">
<title>Node6</title>
<g id="a_Node000006"><a xlink:title=" ">
<polygon fill="#e0e0e0" stroke="#999999" points="438,-24.5 394,-24.5 394,-5.5 438,-5.5 438,-24.5"/>
<text text-anchor="middle" x="416" y="-12.5" font-family="Helvetica,sans-Serif" font-size="10.00">limits</text>
</a>
</g>
</g>
<!-- Node1&#45;&gt;Node6 -->
<g id="edge5_Node000001_Node000006" class="edge">
<title>Node1&#45;&gt;Node6</title>
<g id="a_edge5_Node000001_Node000006"><a xlink:title=" ">
<path fill="none" stroke="#63b8ff" d="M387.87,-65.87C392.65,-57.4 400.07,-44.24 406.09,-33.57"/>
<polygon fill="#63b8ff" stroke="#63b8ff" points="409.25,-35.1 411.11,-24.67 403.15,-31.66 409.25,-35.1"/>
</a>
</g>
</g>
<!-- Node7 -->
<g id="Node000007" class="node">
<title>Node7</title>
<g id="a_Node000007"><a xlink:title=" ">
<polygon fill="#e0e0e0" stroke="#999999" points="503.5,-24.5 456.5,-24.5 456.5,-5.5 503.5,-5.5 503.5,-24.5"/>
<text text-anchor="middle" x="480" y="-12.5" font-family="Helvetica,sans-Serif" font-size="10.00">queue</text>
</a>
</g>
</g>
<!-- Node1&#45;&gt;Node7 -->
<g id="edge6_Node000001_Node000007" class="edge">
<title>Node1&#45;&gt;Node7</title>
<g id="a_edge6_Node000001_Node000007"><a xlink:title=" ">
<path fill="none" stroke="#63b8ff" d="M397.31,-65.87C413,-56.41 438.4,-41.09 456.91,-29.92"/>
<polygon fill="#63b8ff" stroke="#63b8ff" points="458.87,-32.83 465.63,-24.67 455.26,-26.83 458.87,-32.83"/>
</a>
</g>
</g>
<!-- Node8 -->
<g id="Node000008" class="node">
<title>Node8</title>
<g id="a_Node000008"><a xlink:title=" ">
<polygon fill="#e0e0e0" stroke="#999999" points="566.5,-24.5 521.5,-24.5 521.5,-5.5 566.5,-5.5 566.5,-24.5"/>
<text text-anchor="middle" x="544" y="-12.5" font-family="Helvetica,sans-Serif" font-size="10.00">utility</text>
</a>
</g>
</g>
<!-- Node1&#45;&gt;Node8 -->
<g id="edge7_Node000001_Node000008" class="edge">
<title>Node1&#45;&gt;Node8</title>
<g id="a_edge7_Node000001_Node000008"><a xlink:title=" ">
<path fill="none" stroke="#63b8ff" d="M410.41,-65.95C436.91,-57.49 478.07,-43.83 513,-30 514.17,-29.54 515.37,-29.05 516.57,-28.55"/>
<polygon fill="#63b8ff" stroke="#63b8ff" points="517.97,-31.76 525.76,-24.58 515.2,-25.33 517.97,-31.76"/>
</a>
</g>
</g>
<!-- Node9 -->
<g id="Node000009" class="node">
<title>Node9</title>
<g id="a_Node000009"><a xlink:title=" ">
<polygon fill="#e0e0e0" stroke="#999999" points="631.5,-24.5 584.5,-24.5 584.5,-5.5 631.5,-5.5 631.5,-24.5"/>
<text text-anchor="middle" x="608" y="-12.5" font-family="Helvetica,sans-Serif" font-size="10.00">vector</text>
</a>
</g>
</g>
<!-- Node1&#45;&gt;Node9 -->
<g id="edge8_Node000001_Node000009" class="edge">
<title>Node1&#45;&gt;Node9</title>
<g id="a_edge8_Node000001_Node000009"><a xlink:title=" ">
<path fill="none" stroke="#63b8ff" d="M431.27,-65.96C470.73,-58.36 527.68,-45.99 576,-30 577.44,-29.52 578.9,-29.01 580.37,-28.46"/>
<polygon fill="#63b8ff" stroke="#63b8ff" points="581.99,-31.58 589.95,-24.59 579.37,-25.09 581.99,-31.58"/>
</a>
</g>
</g>
</g>
</svg>
