<?xml version="1.0" encoding="UTF-8" standalone="no"?>
<!DOCTYPE svg PUBLIC "-//W3C//DTD SVG 1.1//EN"
 "http://www.w3.org/Graphics/SVG/1.1/DTD/svg11.dtd">
<!-- Generated by graphviz version 2.43.0 (0)
 -->
<!-- Title: digraphx/min_cycle_ratio.hpp Pages: 1 -->
<svg width="503pt" height="203pt"
 viewBox="0.00 0.00 502.50 203.00" xmlns="http://www.w3.org/2000/svg" xmlns:xlink="http://www.w3.org/1999/xlink">
<g id="graph0" class="graph" transform="scale(1 1) rotate(0) translate(4 199)">
<title>digraphx/min_cycle_ratio.hpp</title>
<!-- Node1 -->
<g id="Node000001" class="node">
<title>Node1</title>
<g id="a_Node000001"><a xlink:title="Minimum cycle ratio algorithms for directed graphs.">
<polygon fill="#999999" stroke="#666666" points="136,-195 24,-195 24,-165 136,-165 136,-195"/>
<text text-anchor="start" x="32" y="-183" font-family="Helvetica,sans-Serif" font-size="10.00">digraphx/min_cycle</text>
<text text-anchor="middle" x="80" y="-172" font-family="Helvetica,sans-Serif" font-size="10.00">_ratio.hpp</text>
</a>
</g>
</g>
<!-- Node2 -->
<g id="Node000002" class="node">
<title>Node2</title>
<g id="a_Node000002"><a xlink:title=" ">
<polygon fill="#e0e0e0" stroke="#999999" points="64,-129 0,-129 0,-110 64,-110 64,-129"/>
<text text-anchor="middle" x="32" y="-117" font-family="Helvetica,sans-Serif" font-size="10.00">algorithm</text>
</a>
</g>
</g>
<!-- Node1&#45;&gt;Node2 -->
<g id="edge1_Node000001_Node000002" class="edge">
<title>Node1&#45;&gt;Node2</title>
<g id="a_edge1_Node000001_Node000002"><a xlink:title=" ">
<path fill="none" stroke="#63b8ff" d="M68.38,-164.84C61.56,-156.52 52.89,-145.96 45.73,-137.23"/>
<polygon fill="#63b8ff" stroke="#63b8ff" points="48.24,-134.78 39.19,-129.27 42.83,-139.22 48.24,-134.78"/>
</a>
</g>
</g>
<!-- Node3 -->
<g id="Node000003" class="node">
<title>Node3</title>
<g id="a_Node000003"><a xlink:href="parametric_8hpp.html" target="_top" xlink:title="Maximum parametric network problem solver.">
<polygon fill="white" stroke="#666666" points="173.5,-129 82.5,-129 82.5,-110 173.5,-110 173.5,-129"/>
<text text-anchor="middle" x="128" y="-117" font-family="Helvetica,sans-Serif" font-size="10.00">parametric.hpp</text>
</a>
</g>
</g>
<!-- Node1&#45;&gt;Node3 -->
<g id="edge2_Node000001_Node000003" class="edge">
<title>Node1&#45;&gt;Node3</title>
<g id="a_edge2_Node000001_Node000003"><a xlink:title=" ">
<path fill="none" stroke="#63b8ff" d="M91.62,-164.84C98.44,-156.52 107.11,-145.96 114.27,-137.23"/>
<polygon fill="#63b8ff" stroke="#63b8ff" points="117.17,-139.22 120.81,-129.27 111.76,-134.78 117.17,-139.22"/>
</a>
</g>
</g>
<!-- Node4 -->
<g id="Node000004" class="node">
<title>Node4</title>
<g id="a_Node000004"><a xlink:title=" ">
<polygon fill="#e0e0e0" stroke="#999999" points="50.5,-19 3.5,-19 3.5,0 50.5,0 50.5,-19"/>
<text text-anchor="middle" x="27" y="-7" font-family="Helvetica,sans-Serif" font-size="10.00">vector</text>
</a>
</g>
</g>
<!-- Node3&#45;&gt;Node4 -->
<g id="edge3_Node000003_Node000004" class="edge">
<title>Node3&#45;&gt;Node4</title>
<g id="a_edge3_Node000003_Node000004"><a xlink:title=" ">
<path fill="none" stroke="#63b8ff" d="M119.73,-109.66C102.71,-91.46 63.52,-49.55 41.93,-26.47"/>
<polygon fill="#63b8ff" stroke="#63b8ff" points="44.48,-24.07 35.1,-19.16 39.37,-28.85 44.48,-24.07"/>
</a>
</g>
</g>
<!-- Node5 -->
<g id="Node000005" class="node">
<title>Node5</title>
<g id="a_Node000005"><a xlink:href="neg__cycle_8hpp.html" target="_top" xlink:title="Negative cycle detection for weighted directed graphs.">
<polygon fill="white" stroke="#666666" points="229,-74 143,-74 143,-55 229,-55 229,-74"/>
<text text-anchor="middle" x="186" y="-62" font-family="Helvetica,sans-Serif" font-size="10.00">neg_cycle.hpp</text>
</a>
</g>
</g>
<!-- Node3&#45;&gt;Node5 -->
<g id="edge4_Node000003_Node000005" class="edge">
<title>Node3&#45;&gt;Node5</title>
<g id="a_edge4_Node000003_Node000005"><a xlink:title=" ">
<path fill="none" stroke="#63b8ff" d="M137.32,-109.98C145.81,-102.23 158.56,-90.58 168.88,-81.14"/>
<polygon fill="#63b8ff" stroke="#63b8ff" points="171.49,-83.5 176.51,-74.17 166.77,-78.33 171.49,-83.5"/>
</a>
</g>
</g>
<!-- Node5&#45;&gt;Node4 -->
<g id="edge10_Node000005_Node000004" class="edge">
<title>Node5&#45;&gt;Node4</title>
<g id="a_edge10_Node000005_Node000004"><a xlink:title=" ">
<path fill="none" stroke="#63b8ff" d="M160.45,-54.98C133.24,-45.91 90.07,-31.52 60.23,-21.58"/>
<polygon fill="#63b8ff" stroke="#63b8ff" points="61.26,-18.23 50.67,-18.39 59.05,-24.87 61.26,-18.23"/>
</a>
</g>
</g>
<!-- Node6 -->
<g id="Node000006" class="node">
<title>Node6</title>
<g id="a_Node000006"><a xlink:title=" ">
<polygon fill="#e0e0e0" stroke="#999999" points="121,-19 69,-19 69,0 121,0 121,-19"/>
<text text-anchor="middle" x="95" y="-7" font-family="Helvetica,sans-Serif" font-size="10.00">cassert</text>
</a>
</g>
</g>
<!-- Node5&#45;&gt;Node6 -->
<g id="edge5_Node000005_Node000006" class="edge">
<title>Node5&#45;&gt;Node6</title>
<g id="a_edge5_Node000005_Node000006"><a xlink:title=" ">
<path fill="none" stroke="#63b8ff" d="M171.38,-54.98C157.14,-46.69 135.25,-33.94 118.55,-24.22"/>
<polygon fill="#63b8ff" stroke="#63b8ff" points="120.29,-21.18 109.89,-19.17 116.77,-27.23 120.29,-21.18"/>
</a>
</g>
</g>
<!-- Node7 -->
<g id="Node000007" class="node">
<title>Node7</title>
<g id="a_Node000007"><a xlink:title=" ">
<polygon fill="#e0e0e0" stroke="#999999" points="233,-19 139,-19 139,0 233,0 233,-19"/>
<text text-anchor="middle" x="186" y="-7" font-family="Helvetica,sans-Serif" font-size="10.00">py2cpp/gen.hpp</text>
</a>
</g>
</g>
<!-- Node5&#45;&gt;Node7 -->
<g id="edge6_Node000005_Node000007" class="edge">
<title>Node5&#45;&gt;Node7</title>
<g id="a_edge6_Node000005_Node000007"><a xlink:title=" ">
<path fill="none" stroke="#63b8ff" d="M186,-54.75C186,-47.8 186,-37.85 186,-29.13"/>
<polygon fill="#63b8ff" stroke="#63b8ff" points="189.5,-29.09 186,-19.09 182.5,-29.09 189.5,-29.09"/>
</a>
</g>
</g>
<!-- Node8 -->
<g id="Node000008" class="node">
<title>Node8</title>
<g id="a_Node000008"><a xlink:title=" ">
<polygon fill="#e0e0e0" stroke="#999999" points="320.5,-19 251.5,-19 251.5,0 320.5,0 320.5,-19"/>
<text text-anchor="middle" x="286" y="-7" font-family="Helvetica,sans-Serif" font-size="10.00">type_traits</text>
</a>
</g>
</g>
<!-- Node5&#45;&gt;Node8 -->
<g id="edge7_Node000005_Node000008" class="edge">
<title>Node5&#45;&gt;Node8</title>
<g id="a_edge7_Node000005_Node000008"><a xlink:title=" ">
<path fill="none" stroke="#63b8ff" d="M202.07,-54.98C217.86,-46.61 242.22,-33.7 260.63,-23.95"/>
<polygon fill="#63b8ff" stroke="#63b8ff" points="262.44,-26.95 269.64,-19.17 259.17,-20.76 262.44,-26.95"/>
</a>
</g>
</g>
<!-- Node9 -->
<g id="Node000009" class="node">
<title>Node9</title>
<g id="a_Node000009"><a xlink:title=" ">
<polygon fill="#e0e0e0" stroke="#999999" points="431.5,-19 338.5,-19 338.5,0 431.5,0 431.5,-19"/>
<text text-anchor="middle" x="385" y="-7" font-family="Helvetica,sans-Serif" font-size="10.00">unordered_map</text>
</a>
</g>
</g>
<!-- Node5&#45;&gt;Node9 -->
<g id="edge8_Node000005_Node000009" class="edge">
<title>Node5&#45;&gt;Node9</title>
<g id="a_edge8_Node000005_Node000009"><a xlink:title=" ">
<path fill="none" stroke="#63b8ff" d="M217.97,-54.98C251.82,-45.97 305.4,-31.7 342.71,-21.76"/>
<polygon fill="#63b8ff" stroke="#63b8ff" points="344.01,-25.04 352.78,-19.08 342.21,-18.27 344.01,-25.04"/>
</a>
</g>
</g>
<!-- Node10 -->
<g id="Node000010" class="node">
<title>Node10</title>
<g id="a_Node000010"><a xlink:title=" ">
<polygon fill="#e0e0e0" stroke="#999999" points="494.5,-19 449.5,-19 449.5,0 494.5,0 494.5,-19"/>
<text text-anchor="middle" x="472" y="-7" font-family="Helvetica,sans-Serif" font-size="10.00">utility</text>
</a>
</g>
</g>
<!-- Node5&#45;&gt;Node10 -->
<g id="edge9_Node000005_Node000010" class="edge">
<title>Node5&#45;&gt;Node10</title>
<g id="a_edge9_Node000005_Node000010"><a xlink:title=" ">
<path fill="none" stroke="#63b8ff" d="M229.11,-57.25C277.92,-49.9 360.02,-36.68 439.23,-19.23"/>
<polygon fill="#63b8ff" stroke="#63b8ff" points="440.38,-22.56 449.38,-16.97 438.85,-15.73 440.38,-22.56"/>
</a>
</g>
</g>
</g>
</svg>
