<?xml version="1.0" encoding="UTF-8" standalone="no"?>
<!DOCTYPE svg PUBLIC "-//W3C//DTD SVG 1.1//EN"
 "http://www.w3.org/Graphics/SVG/1.1/DTD/svg11.dtd">
<!-- Generated by graphviz version 2.43.0 (0)
 -->
<!-- Title: digraphx/min_parametric_q.hpp Pages: 1 -->
<svg width="521pt" height="148pt"
 viewBox="0.00 0.00 521.00 148.00" xmlns="http://www.w3.org/2000/svg" xmlns:xlink="http://www.w3.org/1999/xlink">
<g id="graph0" class="graph" transform="scale(1 1) rotate(0) translate(4 144)">
<title>digraphx/min_parametric_q.hpp</title>
<!-- Node1 -->
<g id="Node000001" class="node">
<title>Node1</title>
<g id="a_Node000001"><a xlink:title="Minimum parametric network problem solver with constraints.">
<polygon fill="#999999" stroke="#666666" points="201.5,-140 61.5,-140 61.5,-110 201.5,-110 201.5,-140"/>
<text text-anchor="start" x="69.5" y="-128" font-family="Helvetica,sans-Serif" font-size="10.00">digraphx/min_parametric</text>
<text text-anchor="middle" x="131.5" y="-117" font-family="Helvetica,sans-Serif" font-size="10.00">_q.hpp</text>
</a>
</g>
</g>
<!-- Node2 -->
<g id="Node000002" class="node">
<title>Node2</title>
<g id="a_Node000002"><a xlink:title=" ">
<polygon fill="#e0e0e0" stroke="#999999" points="65,-74 0,-74 0,-55 65,-55 65,-74"/>
<text text-anchor="middle" x="32.5" y="-62" font-family="Helvetica,sans-Serif" font-size="10.00">functional</text>
</a>
</g>
</g>
<!-- Node1&#45;&gt;Node2 -->
<g id="edge1_Node000001_Node000002" class="edge">
<title>Node1&#45;&gt;Node2</title>
<g id="a_edge1_Node000001_Node000002"><a xlink:title=" ">
<path fill="none" stroke="#63b8ff" d="M107.79,-109.99C92.15,-100.75 71.76,-88.7 56.14,-79.47"/>
<polygon fill="#63b8ff" stroke="#63b8ff" points="57.51,-76.21 47.12,-74.14 53.95,-82.24 57.51,-76.21"/>
</a>
</g>
</g>
<!-- Node3 -->
<g id="Node000003" class="node">
<title>Node3</title>
<g id="a_Node000003"><a xlink:title=" ">
<polygon fill="#e0e0e0" stroke="#999999" points="91,-19 22,-19 22,0 91,0 91,-19"/>
<text text-anchor="middle" x="56.5" y="-7" font-family="Helvetica,sans-Serif" font-size="10.00">type_traits</text>
</a>
</g>
</g>
<!-- Node1&#45;&gt;Node3 -->
<g id="edge2_Node000001_Node000003" class="edge">
<title>Node1&#45;&gt;Node3</title>
<g id="a_edge2_Node000001_Node000003"><a xlink:title=" ">
<path fill="none" stroke="#63b8ff" d="M122,-109.63C108.21,-88.75 82.66,-50.09 67.88,-27.72"/>
<polygon fill="#63b8ff" stroke="#63b8ff" points="70.7,-25.64 62.27,-19.23 64.86,-29.5 70.7,-25.64"/>
</a>
</g>
</g>
<!-- Node4 -->
<g id="Node000004" class="node">
<title>Node4</title>
<g id="a_Node000004"><a xlink:title=" ">
<polygon fill="#e0e0e0" stroke="#999999" points="154,-19 109,-19 109,0 154,0 154,-19"/>
<text text-anchor="middle" x="131.5" y="-7" font-family="Helvetica,sans-Serif" font-size="10.00">utility</text>
</a>
</g>
</g>
<!-- Node1&#45;&gt;Node4 -->
<g id="edge3_Node000001_Node000004" class="edge">
<title>Node1&#45;&gt;Node4</title>
<g id="a_edge3_Node000001_Node000004"><a xlink:title=" ">
<path fill="none" stroke="#63b8ff" d="M131.5,-109.63C131.5,-89.21 131.5,-51.81 131.5,-29.24"/>
<polygon fill="#63b8ff" stroke="#63b8ff" points="135,-29.23 131.5,-19.23 128,-29.23 135,-29.23"/>
</a>
</g>
</g>
<!-- Node5 -->
<g id="Node000005" class="node">
<title>Node5</title>
<g id="a_Node000005"><a xlink:title=" ">
<polygon fill="#e0e0e0" stroke="#999999" points="219,-19 172,-19 172,0 219,0 219,-19"/>
<text text-anchor="middle" x="195.5" y="-7" font-family="Helvetica,sans-Serif" font-size="10.00">vector</text>
</a>
</g>
</g>
<!-- Node1&#45;&gt;Node5 -->
<g id="edge4_Node000001_Node000005" class="edge">
<title>Node1&#45;&gt;Node5</title>
<g id="a_edge4_Node000001_Node000005"><a xlink:title=" ">
<path fill="none" stroke="#63b8ff" d="M139.61,-109.63C151.33,-88.84 172.98,-50.44 185.62,-28.02"/>
<polygon fill="#63b8ff" stroke="#63b8ff" points="188.71,-29.66 190.58,-19.23 182.62,-26.22 188.71,-29.66"/>
</a>
</g>
</g>
<!-- Node6 -->
<g id="Node000006" class="node">
<title>Node6</title>
<g id="a_Node000006"><a xlink:href="neg__cycle__q_8hpp.html" target="_top" xlink:title="Negative cycle detection with constraints using Howard&#39;s method.">
<polygon fill="white" stroke="#666666" points="295.5,-74 197.5,-74 197.5,-55 295.5,-55 295.5,-74"/>
<text text-anchor="middle" x="246.5" y="-62" font-family="Helvetica,sans-Serif" font-size="10.00">neg_cycle_q.hpp</text>
</a>
</g>
</g>
<!-- Node1&#45;&gt;Node6 -->
<g id="edge5_Node000001_Node000006" class="edge">
<title>Node1&#45;&gt;Node6</title>
<g id="a_edge5_Node000001_Node000006"><a xlink:title=" ">
<path fill="none" stroke="#63b8ff" d="M159.05,-109.99C177.72,-100.49 202.24,-88.02 220.56,-78.69"/>
<polygon fill="#63b8ff" stroke="#63b8ff" points="222.19,-81.79 229.52,-74.14 219.02,-75.55 222.19,-81.79"/>
</a>
</g>
</g>
<!-- Node6&#45;&gt;Node3 -->
<g id="edge8_Node000006_Node000003" class="edge">
<title>Node6&#45;&gt;Node3</title>
<g id="a_edge8_Node000006_Node000003"><a xlink:title=" ">
<path fill="none" stroke="#63b8ff" d="M215.97,-54.98C183.8,-46.01 132.94,-31.82 97.33,-21.89"/>
<polygon fill="#63b8ff" stroke="#63b8ff" points="97.84,-18.4 87.27,-19.08 95.96,-25.14 97.84,-18.4"/>
</a>
</g>
</g>
<!-- Node6&#45;&gt;Node4 -->
<g id="edge10_Node000006_Node000004" class="edge">
<title>Node6&#45;&gt;Node4</title>
<g id="a_edge10_Node000006_Node000004"><a xlink:title=" ">
<path fill="none" stroke="#63b8ff" d="M228.02,-54.98C209.52,-46.46 180.82,-33.23 159.52,-23.41"/>
<polygon fill="#63b8ff" stroke="#63b8ff" points="160.86,-20.18 150.31,-19.17 157.93,-26.53 160.86,-20.18"/>
</a>
</g>
</g>
<!-- Node6&#45;&gt;Node5 -->
<g id="edge11_Node000006_Node000005" class="edge">
<title>Node6&#45;&gt;Node5</title>
<g id="a_edge11_Node000006_Node000005"><a xlink:title=" ">
<path fill="none" stroke="#63b8ff" d="M238.08,-54.75C230.73,-47.11 219.87,-35.82 210.96,-26.56"/>
<polygon fill="#63b8ff" stroke="#63b8ff" points="213.22,-23.87 203.76,-19.09 208.18,-28.72 213.22,-23.87"/>
</a>
</g>
</g>
<!-- Node7 -->
<g id="Node000007" class="node">
<title>Node7</title>
<g id="a_Node000007"><a xlink:title=" ">
<polygon fill="#e0e0e0" stroke="#999999" points="289.5,-19 237.5,-19 237.5,0 289.5,0 289.5,-19"/>
<text text-anchor="middle" x="263.5" y="-7" font-family="Helvetica,sans-Serif" font-size="10.00">cassert</text>
</a>
</g>
</g>
<!-- Node6&#45;&gt;Node7 -->
<g id="edge6_Node000006_Node000007" class="edge">
<title>Node6&#45;&gt;Node7</title>
<g id="a_edge6_Node000006_Node000007"><a xlink:title=" ">
<path fill="none" stroke="#63b8ff" d="M249.31,-54.75C251.56,-47.72 254.8,-37.62 257.62,-28.84"/>
<polygon fill="#63b8ff" stroke="#63b8ff" points="261.02,-29.68 260.75,-19.09 254.36,-27.54 261.02,-29.68"/>
</a>
</g>
</g>
<!-- Node8 -->
<g id="Node000008" class="node">
<title>Node8</title>
<g id="a_Node000008"><a xlink:title=" ">
<polygon fill="#e0e0e0" stroke="#999999" points="401.5,-19 307.5,-19 307.5,0 401.5,0 401.5,-19"/>
<text text-anchor="middle" x="354.5" y="-7" font-family="Helvetica,sans-Serif" font-size="10.00">py2cpp/gen.hpp</text>
</a>
</g>
</g>
<!-- Node6&#45;&gt;Node8 -->
<g id="edge7_Node000006_Node000008" class="edge">
<title>Node6&#45;&gt;Node8</title>
<g id="a_edge7_Node000006_Node000008"><a xlink:title=" ">
<path fill="none" stroke="#63b8ff" d="M263.85,-54.98C281.07,-46.54 307.7,-33.47 327.65,-23.68"/>
<polygon fill="#63b8ff" stroke="#63b8ff" points="329.4,-26.72 336.83,-19.17 326.31,-20.43 329.4,-26.72"/>
</a>
</g>
</g>
<!-- Node9 -->
<g id="Node000009" class="node">
<title>Node9</title>
<g id="a_Node000009"><a xlink:title=" ">
<polygon fill="#e0e0e0" stroke="#999999" points="513,-19 420,-19 420,0 513,0 513,-19"/>
<text text-anchor="middle" x="466.5" y="-7" font-family="Helvetica,sans-Serif" font-size="10.00">unordered_map</text>
</a>
</g>
</g>
<!-- Node6&#45;&gt;Node9 -->
<g id="edge9_Node000006_Node000009" class="edge">
<title>Node6&#45;&gt;Node9</title>
<g id="a_edge9_Node000006_Node000009"><a xlink:title=" ">
<path fill="none" stroke="#63b8ff" d="M281.85,-54.98C319.66,-45.87 379.76,-31.4 421.07,-21.45"/>
<polygon fill="#63b8ff" stroke="#63b8ff" points="421.97,-24.83 430.88,-19.08 420.33,-18.02 421.97,-24.83"/>
</a>
</g>
</g>
</g>
</svg>
