<?xml version="1.0" encoding="UTF-8" standalone="no"?>
<!DOCTYPE svg PUBLIC "-//W3C//DTD SVG 1.1//EN"
 "http://www.w3.org/Graphics/SVG/1.1/DTD/svg11.dtd">
<!-- Generated by graphviz version 2.43.0 (0)
 -->
<!-- Title: digraphx/min_cycle_ratio.hpp Pages: 1 -->
<svg width="547pt" height="269pt"
 viewBox="0.00 0.00 546.50 269.00" xmlns="http://www.w3.org/2000/svg" xmlns:xlink="http://www.w3.org/1999/xlink">
<g id="graph0" class="graph" transform="scale(1 1) rotate(0) translate(4 265)">
<title>digraphx/min_cycle_ratio.hpp</title>
<!-- Node1 -->
<g id="Node000001" class="node">
<title>Node1</title>
<g id="a_Node000001"><a xlink:title="Minimum cycle ratio algorithms for directed graphs.">
<polygon fill="#999999" stroke="#666666" points="136,-261 24,-261 24,-231 136,-231 136,-261"/>
<text text-anchor="start" x="32" y="-249" font-family="Helvetica,sans-Serif" font-size="10.00">digraphx/min_cycle</text>
<text text-anchor="middle" x="80" y="-238" font-family="Helvetica,sans-Serif" font-size="10.00">_ratio.hpp</text>
</a>
</g>
</g>
<!-- Node2 -->
<g id="Node000002" class="node">
<title>Node2</title>
<g id="a_Node000002"><a xlink:title=" ">
<polygon fill="#e0e0e0" stroke="#999999" points="64,-195 0,-195 0,-176 64,-176 64,-195"/>
<text text-anchor="middle" x="32" y="-183" font-family="Helvetica,sans-Serif" font-size="10.00">algorithm</text>
</a>
</g>
</g>
<!-- Node1&#45;&gt;Node2 -->
<g id="edge1_Node000001_Node000002" class="edge">
<title>Node1&#45;&gt;Node2</title>
<g id="a_edge1_Node000001_Node000002"><a xlink:title=" ">
<path fill="none" stroke="#63b8ff" d="M68.38,-230.84C61.56,-222.52 52.89,-211.96 45.73,-203.23"/>
<polygon fill="#63b8ff" stroke="#63b8ff" points="48.24,-200.78 39.19,-195.27 42.83,-205.22 48.24,-200.78"/>
</a>
</g>
</g>
<!-- Node3 -->
<g id="Node000003" class="node">
<title>Node3</title>
<g id="a_Node000003"><a xlink:href="parametric_8hpp.html" target="_top" xlink:title="Maximum parametric network problem solver.">
<polygon fill="white" stroke="#666666" points="173.5,-195 82.5,-195 82.5,-176 173.5,-176 173.5,-195"/>
<text text-anchor="middle" x="128" y="-183" font-family="Helvetica,sans-Serif" font-size="10.00">parametric.hpp</text>
</a>
</g>
</g>
<!-- Node1&#45;&gt;Node3 -->
<g id="edge2_Node000001_Node000003" class="edge">
<title>Node1&#45;&gt;Node3</title>
<g id="a_edge2_Node000001_Node000003"><a xlink:title=" ">
<path fill="none" stroke="#63b8ff" d="M91.62,-230.84C98.44,-222.52 107.11,-211.96 114.27,-203.23"/>
<polygon fill="#63b8ff" stroke="#63b8ff" points="117.17,-205.22 120.81,-195.27 111.76,-200.78 117.17,-205.22"/>
</a>
</g>
</g>
<!-- Node4 -->
<g id="Node000004" class="node">
<title>Node4</title>
<g id="a_Node000004"><a xlink:title=" ">
<polygon fill="#e0e0e0" stroke="#999999" points="83.5,-24.5 36.5,-24.5 36.5,-5.5 83.5,-5.5 83.5,-24.5"/>
<text text-anchor="middle" x="60" y="-12.5" font-family="Helvetica,sans-Serif" font-size="10.00">vector</text>
</a>
</g>
</g>
<!-- Node3&#45;&gt;Node4 -->
<g id="edge3_Node000003_Node000004" class="edge">
<title>Node3&#45;&gt;Node4</title>
<g id="a_edge3_Node000003_Node000004"><a xlink:title=" ">
<path fill="none" stroke="#63b8ff" d="M124.53,-175.91C113.94,-149.67 81.84,-70.11 67.3,-34.08"/>
<polygon fill="#63b8ff" stroke="#63b8ff" points="70.53,-32.74 63.54,-24.77 64.04,-35.36 70.53,-32.74"/>
</a>
</g>
</g>
<!-- Node5 -->
<g id="Node000005" class="node">
<title>Node5</title>
<g id="a_Node000005"><a xlink:href="neg__cycle_8hpp.html" target="_top" xlink:title="Negative cycle detection for weighted directed graphs.">
<polygon fill="white" stroke="#666666" points="276,-140 190,-140 190,-121 276,-121 276,-140"/>
<text text-anchor="middle" x="233" y="-128" font-family="Helvetica,sans-Serif" font-size="10.00">neg_cycle.hpp</text>
</a>
</g>
</g>
<!-- Node3&#45;&gt;Node5 -->
<g id="edge4_Node000003_Node000005" class="edge">
<title>Node3&#45;&gt;Node5</title>
<g id="a_edge4_Node000003_Node000005"><a xlink:title=" ">
<path fill="none" stroke="#63b8ff" d="M144.87,-175.98C161.61,-167.54 187.5,-154.47 206.89,-144.68"/>
<polygon fill="#63b8ff" stroke="#63b8ff" points="208.47,-147.8 215.82,-140.17 205.32,-141.55 208.47,-147.8"/>
</a>
</g>
</g>
<!-- Node5&#45;&gt;Node4 -->
<g id="edge10_Node000005_Node000004" class="edge">
<title>Node5&#45;&gt;Node4</title>
<g id="a_edge10_Node000005_Node000004"><a xlink:title=" ">
<path fill="none" stroke="#63b8ff" d="M220,-120.97C190.44,-101.58 117.96,-54.03 81.58,-30.16"/>
<polygon fill="#63b8ff" stroke="#63b8ff" points="83.44,-27.19 73.15,-24.63 79.6,-33.04 83.44,-27.19"/>
</a>
</g>
</g>
<!-- Node6 -->
<g id="Node000006" class="node">
<title>Node6</title>
<g id="a_Node000006"><a xlink:title=" ">
<polygon fill="#e0e0e0" stroke="#999999" points="206,-30 102,-30 102,0 206,0 206,-30"/>
<text text-anchor="start" x="110" y="-18" font-family="Helvetica,sans-Serif" font-size="10.00">absl/container/flat</text>
<text text-anchor="middle" x="154" y="-7" font-family="Helvetica,sans-Serif" font-size="10.00">_hash_map.h</text>
</a>
</g>
</g>
<!-- Node5&#45;&gt;Node6 -->
<g id="edge5_Node000005_Node000006" class="edge">
<title>Node5&#45;&gt;Node6</title>
<g id="a_edge5_Node000005_Node000006"><a xlink:title=" ">
<path fill="none" stroke="#63b8ff" d="M227.06,-120.97C214.99,-103.63 187.25,-63.77 169.64,-38.47"/>
<polygon fill="#63b8ff" stroke="#63b8ff" points="172.46,-36.39 163.87,-30.18 166.71,-40.39 172.46,-36.39"/>
</a>
</g>
</g>
<!-- Node7 -->
<g id="Node000007" class="node">
<title>Node7</title>
<g id="a_Node000007"><a xlink:title=" ">
<polygon fill="#e0e0e0" stroke="#999999" points="276,-24.5 224,-24.5 224,-5.5 276,-5.5 276,-24.5"/>
<text text-anchor="middle" x="250" y="-12.5" font-family="Helvetica,sans-Serif" font-size="10.00">cassert</text>
</a>
</g>
</g>
<!-- Node5&#45;&gt;Node7 -->
<g id="edge6_Node000005_Node000007" class="edge">
<title>Node5&#45;&gt;Node7</title>
<g id="a_edge6_Node000005_Node000007"><a xlink:title=" ">
<path fill="none" stroke="#63b8ff" d="M226.24,-120.88C217.52,-108.67 204.25,-85.64 211,-66 215.39,-53.25 224.5,-41.25 232.82,-32.21"/>
<polygon fill="#63b8ff" stroke="#63b8ff" points="235.58,-34.39 240.08,-24.79 230.58,-29.49 235.58,-34.39"/>
</a>
</g>
</g>
<!-- Node8 -->
<g id="Node000008" class="node">
<title>Node8</title>
<g id="a_Node000008"><a xlink:title=" ">
<polygon fill="#e0e0e0" stroke="#999999" points="388,-24.5 294,-24.5 294,-5.5 388,-5.5 388,-24.5"/>
<text text-anchor="middle" x="341" y="-12.5" font-family="Helvetica,sans-Serif" font-size="10.00">py2cpp/gen.hpp</text>
</a>
</g>
</g>
<!-- Node5&#45;&gt;Node8 -->
<g id="edge7_Node000005_Node000008" class="edge">
<title>Node5&#45;&gt;Node8</title>
<g id="a_edge7_Node000005_Node000008"><a xlink:title=" ">
<path fill="none" stroke="#63b8ff" d="M276.02,-121.84C297.61,-115.66 322.07,-104.61 336,-85 346.31,-70.49 346.36,-49.65 344.57,-34.68"/>
<polygon fill="#63b8ff" stroke="#63b8ff" points="347.99,-33.91 342.98,-24.57 341.08,-34.99 347.99,-33.91"/>
</a>
</g>
</g>
<!-- Node9 -->
<g id="Node000009" class="node">
<title>Node9</title>
<g id="a_Node000009"><a xlink:title=" ">
<polygon fill="#e0e0e0" stroke="#999999" points="475.5,-24.5 406.5,-24.5 406.5,-5.5 475.5,-5.5 475.5,-24.5"/>
<text text-anchor="middle" x="441" y="-12.5" font-family="Helvetica,sans-Serif" font-size="10.00">type_traits</text>
</a>
</g>
</g>
<!-- Node5&#45;&gt;Node9 -->
<g id="edge8_Node000005_Node000009" class="edge">
<title>Node5&#45;&gt;Node9</title>
<g id="a_edge8_Node000005_Node000009"><a xlink:title=" ">
<path fill="none" stroke="#63b8ff" d="M264.52,-120.93C289.67,-113.39 325.31,-101.1 354,-85 380.63,-70.05 407.61,-47.19 424.31,-31.93"/>
<polygon fill="#63b8ff" stroke="#63b8ff" points="427.12,-34.09 432.06,-24.72 422.35,-28.97 427.12,-34.09"/>
</a>
</g>
</g>
<!-- Node10 -->
<g id="Node000010" class="node">
<title>Node10</title>
<g id="a_Node000010"><a xlink:title=" ">
<polygon fill="#e0e0e0" stroke="#999999" points="538.5,-24.5 493.5,-24.5 493.5,-5.5 538.5,-5.5 538.5,-24.5"/>
<text text-anchor="middle" x="516" y="-12.5" font-family="Helvetica,sans-Serif" font-size="10.00">utility</text>
</a>
</g>
</g>
<!-- Node5&#45;&gt;Node10 -->
<g id="edge9_Node000005_Node000010" class="edge">
<title>Node5&#45;&gt;Node10</title>
<g id="a_edge9_Node000005_Node000010"><a xlink:title=" ">
<path fill="none" stroke="#63b8ff" d="M268.81,-120.93C299.61,-113.07 344.96,-100.35 383,-85 422.96,-68.88 466.9,-44.73 492.93,-29.69"/>
<polygon fill="#63b8ff" stroke="#63b8ff" points="494.79,-32.66 501.67,-24.6 491.27,-26.61 494.79,-32.66"/>
</a>
</g>
</g>
<!-- Node11 -->
<g id="Node000011" class="node">
<title>Node11</title>
<g id="a_Node000011"><a xlink:href="digraph__detail_8hpp.html" target="_top" xlink:title="Internal implementation helpers shared by the digraphx algorithms.">
<polygon fill="white" stroke="#666666" points="327.5,-85 220.5,-85 220.5,-66 327.5,-66 327.5,-85"/>
<text text-anchor="middle" x="274" y="-73" font-family="Helvetica,sans-Serif" font-size="10.00">digraph_detail.hpp</text>
</a>
</g>
</g>
<!-- Node5&#45;&gt;Node11 -->
<g id="edge11_Node000005_Node000011" class="edge">
<title>Node5&#45;&gt;Node11</title>
<g id="a_edge11_Node000005_Node000011"><a xlink:title=" ">
<path fill="none" stroke="#63b8ff" d="M239.77,-120.75C245.56,-113.26 254.06,-102.28 261.14,-93.13"/>
<polygon fill="#63b8ff" stroke="#63b8ff" points="264.01,-95.14 267.36,-85.09 258.47,-90.86 264.01,-95.14"/>
</a>
</g>
</g>
<!-- Node11&#45;&gt;Node4 -->
<g id="edge17_Node000011_Node000004" class="edge">
<title>Node11&#45;&gt;Node4</title>
<g id="a_edge17_Node000011_Node000004"><a xlink:title=" ">
<path fill="none" stroke="#63b8ff" d="M231.03,-65.97C194.01,-58.13 139.36,-45.42 93,-30 91.38,-29.46 89.72,-28.87 88.06,-28.26"/>
<polygon fill="#63b8ff" stroke="#63b8ff" points="89.23,-24.96 78.65,-24.52 86.65,-31.47 89.23,-24.96"/>
</a>
</g>
</g>
<!-- Node11&#45;&gt;Node6 -->
<g id="edge12_Node000011_Node000006" class="edge">
<title>Node11&#45;&gt;Node6</title>
<g id="a_edge12_Node000011_Node000006"><a xlink:title=" ">
<path fill="none" stroke="#63b8ff" d="M256.55,-65.99C239.79,-57.82 213.9,-45.2 192.33,-34.69"/>
<polygon fill="#63b8ff" stroke="#63b8ff" points="193.6,-31.41 183.08,-30.18 190.54,-37.71 193.6,-31.41"/>
</a>
</g>
</g>
<!-- Node11&#45;&gt;Node7 -->
<g id="edge14_Node000011_Node000007" class="edge">
<title>Node11&#45;&gt;Node7</title>
<g id="a_edge14_Node000011_Node000007"><a xlink:title=" ">
<path fill="none" stroke="#63b8ff" d="M270.46,-65.87C267.06,-57.57 261.81,-44.78 257.48,-34.22"/>
<polygon fill="#63b8ff" stroke="#63b8ff" points="260.59,-32.59 253.56,-24.67 254.11,-35.25 260.59,-32.59"/>
</a>
</g>
</g>
<!-- Node11&#45;&gt;Node8 -->
<g id="edge13_Node000011_Node000008" class="edge">
<title>Node11&#45;&gt;Node8</title>
<g id="a_edge13_Node000011_Node000008"><a xlink:title=" ">
<path fill="none" stroke="#63b8ff" d="M283.89,-65.87C294.28,-56.8 310.84,-42.34 323.45,-31.32"/>
<polygon fill="#63b8ff" stroke="#63b8ff" points="325.84,-33.88 331.07,-24.67 321.24,-28.61 325.84,-33.88"/>
</a>
</g>
</g>
<!-- Node11&#45;&gt;Node9 -->
<g id="edge15_Node000011_Node000009" class="edge">
<title>Node11&#45;&gt;Node9</title>
<g id="a_edge15_Node000011_Node000009"><a xlink:title=" ">
<path fill="none" stroke="#63b8ff" d="M298.28,-65.99C326.98,-55.94 374.89,-39.16 407.2,-27.84"/>
<polygon fill="#63b8ff" stroke="#63b8ff" points="408.41,-31.13 416.69,-24.52 406.09,-24.52 408.41,-31.13"/>
</a>
</g>
</g>
<!-- Node11&#45;&gt;Node10 -->
<g id="edge16_Node000011_Node000010" class="edge">
<title>Node11&#45;&gt;Node10</title>
<g id="a_edge16_Node000011_Node000010"><a xlink:title=" ">
<path fill="none" stroke="#63b8ff" d="M327.73,-66.47C370.88,-59.24 432.69,-47.1 485,-30 486.44,-29.53 487.9,-29.01 489.36,-28.46"/>
<polygon fill="#63b8ff" stroke="#63b8ff" points="490.98,-31.58 498.88,-24.53 488.3,-25.12 490.98,-31.58"/>
</a>
</g>
</g>
</g>
</svg>
