<?xml version="1.0" encoding="UTF-8" standalone="no"?>
<!DOCTYPE svg PUBLIC "-//W3C//DTD SVG 1.1//EN"
 "http://www.w3.org/Graphics/SVG/1.1/DTD/svg11.dtd">
<!-- Generated by graphviz version 2.43.0 (0)
 -->
<!-- Title: cppcoro/recursive_generator.hpp Pages: 1 -->
<svg width="520pt" height="192pt"
 viewBox="0.00 0.00 520.00 192.00" xmlns="http://www.w3.org/2000/svg" xmlns:xlink="http://www.w3.org/1999/xlink">
<g id="graph0" class="graph" transform="scale(1 1) rotate(0) translate(4 188)">
<title>cppcoro/recursive_generator.hpp</title>
<!-- Node1 -->
<g id="Node000001" class="node">
<title>Node1</title>
<g id="a_Node000001"><a xlink:title=" ">
<polygon fill="#999999" stroke="#666666" points="322.5,-184 146.5,-184 146.5,-165 322.5,-165 322.5,-184"/>
<text text-anchor="middle" x="234.5" y="-172" font-family="Helvetica,sans-Serif" font-size="10.00">cppcoro/recursive_generator.hpp</text>
</a>
</g>
</g>
<!-- Node2 -->
<g id="Node000002" class="node">
<title>Node2</title>
<g id="a_Node000002"><a xlink:title=" ">
<polygon fill="#e0e0e0" stroke="#999999" points="123.5,-129 71.5,-129 71.5,-110 123.5,-110 123.5,-129"/>
<text text-anchor="middle" x="97.5" y="-117" font-family="Helvetica,sans-Serif" font-size="10.00">cassert</text>
</a>
</g>
</g>
<!-- Node1&#45;&gt;Node2 -->
<g id="edge1_Node000001_Node000002" class="edge">
<title>Node1&#45;&gt;Node2</title>
<g id="a_edge1_Node000001_Node000002"><a xlink:title=" ">
<path fill="none" stroke="#63b8ff" d="M212.49,-164.98C190.05,-156.3 155.02,-142.75 129.51,-132.88"/>
<polygon fill="#63b8ff" stroke="#63b8ff" points="130.5,-129.51 119.91,-129.17 127.98,-136.04 130.5,-129.51"/>
</a>
</g>
</g>
<!-- Node3 -->
<g id="Node000003" class="node">
<title>Node3</title>
<g id="a_Node000003"><a xlink:href="coroutine_8hpp.html" target="_top" xlink:title=" ">
<polygon fill="white" stroke="#666666" points="125,-74 0,-74 0,-55 125,-55 125,-74"/>
<text text-anchor="middle" x="62.5" y="-62" font-family="Helvetica,sans-Serif" font-size="10.00">cppcoro/coroutine.hpp</text>
</a>
</g>
</g>
<!-- Node1&#45;&gt;Node3 -->
<g id="edge2_Node000001_Node000003" class="edge">
<title>Node1&#45;&gt;Node3</title>
<g id="a_edge2_Node000001_Node000003"><a xlink:title=" ">
<path fill="none" stroke="#63b8ff" d="M220.72,-164.84C191.15,-146.28 121.41,-102.49 85.2,-79.75"/>
<polygon fill="#63b8ff" stroke="#63b8ff" points="86.68,-76.55 76.35,-74.2 82.96,-82.48 86.68,-76.55"/>
</a>
</g>
</g>
<!-- Node5 -->
<g id="Node000005" class="node">
<title>Node5</title>
<g id="a_Node000005"><a xlink:href="generator_8hpp.html" target="_top" xlink:title=" ">
<polygon fill="white" stroke="#666666" points="343,-129 218,-129 218,-110 343,-110 343,-129"/>
<text text-anchor="middle" x="280.5" y="-117" font-family="Helvetica,sans-Serif" font-size="10.00">cppcoro/generator.hpp</text>
</a>
</g>
</g>
<!-- Node1&#45;&gt;Node5 -->
<g id="edge4_Node000001_Node000005" class="edge">
<title>Node1&#45;&gt;Node5</title>
<g id="a_edge4_Node000001_Node000005"><a xlink:title=" ">
<path fill="none" stroke="#63b8ff" d="M242.1,-164.75C248.66,-157.18 258.32,-146.05 266.31,-136.84"/>
<polygon fill="#63b8ff" stroke="#63b8ff" points="269.13,-138.94 273.05,-129.09 263.85,-134.35 269.13,-138.94"/>
</a>
</g>
</g>
<!-- Node7 -->
<g id="Node000007" class="node">
<title>Node7</title>
<g id="a_Node000007"><a xlink:title=" ">
<polygon fill="#e0e0e0" stroke="#999999" points="208,-74 143,-74 143,-55 208,-55 208,-74"/>
<text text-anchor="middle" x="175.5" y="-62" font-family="Helvetica,sans-Serif" font-size="10.00">functional</text>
</a>
</g>
</g>
<!-- Node1&#45;&gt;Node7 -->
<g id="edge11_Node000001_Node000007" class="edge">
<title>Node1&#45;&gt;Node7</title>
<g id="a_edge11_Node000001_Node000007"><a xlink:title=" ">
<path fill="none" stroke="#63b8ff" d="M229.19,-164.71C223.84,-155.78 215.41,-141.54 208.5,-129 200.07,-113.72 190.96,-96.09 184.45,-83.29"/>
<polygon fill="#63b8ff" stroke="#63b8ff" points="187.49,-81.54 179.85,-74.2 181.24,-84.7 187.49,-81.54"/>
</a>
</g>
</g>
<!-- Node9 -->
<g id="Node000009" class="node">
<title>Node9</title>
<g id="a_Node000009"><a xlink:title=" ">
<polygon fill="#e0e0e0" stroke="#999999" points="449,-74 380,-74 380,-55 449,-55 449,-74"/>
<text text-anchor="middle" x="414.5" y="-62" font-family="Helvetica,sans-Serif" font-size="10.00">type_traits</text>
</a>
</g>
</g>
<!-- Node1&#45;&gt;Node9 -->
<g id="edge12_Node000001_Node000009" class="edge">
<title>Node1&#45;&gt;Node9</title>
<g id="a_edge12_Node000001_Node000009"><a xlink:title=" ">
<path fill="none" stroke="#63b8ff" d="M267.79,-164.97C292.22,-157.75 325.54,-145.88 351.5,-129 371.34,-116.1 389.88,-96.06 401.64,-81.95"/>
<polygon fill="#63b8ff" stroke="#63b8ff" points="404.47,-84.02 408.04,-74.05 399.03,-79.62 404.47,-84.02"/>
</a>
</g>
</g>
<!-- Node10 -->
<g id="Node000010" class="node">
<title>Node10</title>
<g id="a_Node000010"><a xlink:title=" ">
<polygon fill="#e0e0e0" stroke="#999999" points="512,-74 467,-74 467,-55 512,-55 512,-74"/>
<text text-anchor="middle" x="489.5" y="-62" font-family="Helvetica,sans-Serif" font-size="10.00">utility</text>
</a>
</g>
</g>
<!-- Node1&#45;&gt;Node10 -->
<g id="edge13_Node000001_Node000010" class="edge">
<title>Node1&#45;&gt;Node10</title>
<g id="a_edge13_Node000001_Node000010"><a xlink:title=" ">
<path fill="none" stroke="#63b8ff" d="M269.05,-164.98C298.48,-157.2 341.59,-144.55 377.5,-129 410.34,-114.77 445.92,-93.5 467.96,-79.56"/>
<polygon fill="#63b8ff" stroke="#63b8ff" points="469.99,-82.42 476.53,-74.08 466.22,-76.52 469.99,-82.42"/>
</a>
</g>
</g>
<!-- Node4 -->
<g id="Node000004" class="node">
<title>Node4</title>
<g id="a_Node000004"><a xlink:href="config_8hpp.html" target="_top" xlink:title=" ">
<polygon fill="white" stroke="#666666" points="116.5,-19 8.5,-19 8.5,0 116.5,0 116.5,-19"/>
<text text-anchor="middle" x="62.5" y="-7" font-family="Helvetica,sans-Serif" font-size="10.00">cppcoro/config.hpp</text>
</a>
</g>
</g>
<!-- Node3&#45;&gt;Node4 -->
<g id="edge3_Node000003_Node000004" class="edge">
<title>Node3&#45;&gt;Node4</title>
<g id="a_edge3_Node000003_Node000004"><a xlink:title=" ">
<path fill="none" stroke="#63b8ff" d="M62.5,-54.75C62.5,-47.8 62.5,-37.85 62.5,-29.13"/>
<polygon fill="#63b8ff" stroke="#63b8ff" points="66,-29.09 62.5,-19.09 59,-29.09 66,-29.09"/>
</a>
</g>
</g>
<!-- Node5&#45;&gt;Node3 -->
<g id="edge5_Node000005_Node000003" class="edge">
<title>Node5&#45;&gt;Node3</title>
<g id="a_edge5_Node000005_Node000003"><a xlink:title=" ">
<path fill="none" stroke="#63b8ff" d="M245.47,-109.98C208,-100.87 148.45,-86.4 107.52,-76.45"/>
<polygon fill="#63b8ff" stroke="#63b8ff" points="108.34,-73.04 97.8,-74.08 106.69,-79.85 108.34,-73.04"/>
</a>
</g>
</g>
<!-- Node6 -->
<g id="Node000006" class="node">
<title>Node6</title>
<g id="a_Node000006"><a xlink:title=" ">
<polygon fill="#e0e0e0" stroke="#999999" points="291,-74 226,-74 226,-55 291,-55 291,-74"/>
<text text-anchor="middle" x="258.5" y="-62" font-family="Helvetica,sans-Serif" font-size="10.00">exception</text>
</a>
</g>
</g>
<!-- Node5&#45;&gt;Node6 -->
<g id="edge6_Node000005_Node000006" class="edge">
<title>Node5&#45;&gt;Node6</title>
<g id="a_edge6_Node000005_Node000006"><a xlink:title=" ">
<path fill="none" stroke="#63b8ff" d="M276.87,-109.75C273.92,-102.65 269.67,-92.4 265.99,-83.56"/>
<polygon fill="#63b8ff" stroke="#63b8ff" points="269.13,-81.98 262.07,-74.09 262.67,-84.67 269.13,-81.98"/>
</a>
</g>
</g>
<!-- Node5&#45;&gt;Node7 -->
<g id="edge7_Node000005_Node000007" class="edge">
<title>Node5&#45;&gt;Node7</title>
<g id="a_edge7_Node000005_Node000007"><a xlink:title=" ">
<path fill="none" stroke="#63b8ff" d="M263.63,-109.98C246.89,-101.54 221,-88.47 201.61,-78.68"/>
<polygon fill="#63b8ff" stroke="#63b8ff" points="203.18,-75.55 192.68,-74.17 200.03,-81.8 203.18,-75.55"/>
</a>
</g>
</g>
<!-- Node8 -->
<g id="Node000008" class="node">
<title>Node8</title>
<g id="a_Node000008"><a xlink:title=" ">
<polygon fill="#e0e0e0" stroke="#999999" points="362,-74 309,-74 309,-55 362,-55 362,-74"/>
<text text-anchor="middle" x="335.5" y="-62" font-family="Helvetica,sans-Serif" font-size="10.00">iterator</text>
</a>
</g>
</g>
<!-- Node5&#45;&gt;Node8 -->
<g id="edge8_Node000005_Node000008" class="edge">
<title>Node5&#45;&gt;Node8</title>
<g id="a_edge8_Node000005_Node000008"><a xlink:title=" ">
<path fill="none" stroke="#63b8ff" d="M289.58,-109.75C297.59,-102.03 309.46,-90.6 319.12,-81.28"/>
<polygon fill="#63b8ff" stroke="#63b8ff" points="321.81,-83.55 326.59,-74.09 316.96,-78.51 321.81,-83.55"/>
</a>
</g>
</g>
<!-- Node5&#45;&gt;Node9 -->
<g id="edge9_Node000005_Node000009" class="edge">
<title>Node5&#45;&gt;Node9</title>
<g id="a_edge9_Node000005_Node000009"><a xlink:title=" ">
<path fill="none" stroke="#63b8ff" d="M302.03,-109.98C323.97,-101.3 358.24,-87.75 383.19,-77.88"/>
<polygon fill="#63b8ff" stroke="#63b8ff" points="384.57,-81.1 392.58,-74.17 381.99,-74.59 384.57,-81.1"/>
</a>
</g>
</g>
<!-- Node5&#45;&gt;Node10 -->
<g id="edge10_Node000005_Node000010" class="edge">
<title>Node5&#45;&gt;Node10</title>
<g id="a_edge10_Node000005_Node000010"><a xlink:title=" ">
<path fill="none" stroke="#63b8ff" d="M315.68,-109.95C349.6,-101.66 402.61,-88.55 457.02,-74.35"/>
<polygon fill="#63b8ff" stroke="#63b8ff" points="458.04,-77.7 466.83,-71.78 456.27,-70.93 458.04,-77.7"/>
</a>
</g>
</g>
</g>
</svg>
